<svg xmlns="http://www.w3.org/2000/svg" width="39" height="32.251" viewBox="0 0 39 32.251">
  <g id="customer-service" transform="translate(-5.232 -12.114)">
    <path id="path2" d="M25.234,12.122A15.343,15.343,0,0,0,9.985,23.174,2.491,2.491,0,0,0,9,23.265a5.057,5.057,0,0,0-3.031,2.646,8.951,8.951,0,0,0-.621,5.029A7.658,7.658,0,0,0,7.39,35.276a3.445,3.445,0,0,0,3.2,1.027c1.643-.351,2.457-.613,2.227-2.143L11.7,26.741a13.05,13.05,0,0,1,26.06.018l-.779,5.189A13.038,13.038,0,0,1,25.958,40.46H22.64a1.542,1.542,0,0,0-1.546,1.545v.815a1.542,1.542,0,0,0,1.546,1.545h4.183a1.54,1.54,0,0,0,1.542-1.545v-.426a15.4,15.4,0,0,0,9.172-6.446l1.34.355a3.332,3.332,0,0,0,3.2-1.027,7.663,7.663,0,0,0,2.046-4.336,9.011,9.011,0,0,0-.621-5.029,4.37,4.37,0,0,0-2.656-2.546,5.686,5.686,0,0,0-1.371-.192A15.342,15.342,0,0,0,25.234,12.122Z" transform="translate(0 0)" fill="#29296b" fill-rule="evenodd"/>
    <path id="path4" d="M39.363,30.4A2,2,0,1,1,37.355,32.4,2.006,2.006,0,0,1,39.363,30.4Zm-5.4,0A2,2,0,1,1,31.959,32.4,2,2,0,0,1,33.964,30.4Zm-5.4,0A2,2,0,1,1,26.562,32.4,2,2,0,0,1,28.567,30.4Zm5.4-8.611a10.665,10.665,0,0,0-7.736,17.956l-.634,2.84c-.209.935.439,1.563,1.279,1.1l2.773-1.547a10.8,10.8,0,0,0,4.317.889,10.617,10.617,0,0,0,0-21.233Z" transform="translate(-9.232 -4.93)" fill="#29296b" fill-rule="evenodd"/>
  </g>
</svg>
