<svg xmlns="http://www.w3.org/2000/svg" xmlns:xlink="http://www.w3.org/1999/xlink" width="252.221" height="43.258" viewBox="0 0 252.221 43.258">
  <defs>
    <clipPath id="clip-path">
      <rect id="Rectangle_64" data-name="Rectangle 64" width="252.221" height="43.258" transform="translate(0 0)" fill="none"/>
    </clipPath>
  </defs>
  <g id="Group_51" data-name="Group 51" clip-path="url(#clip-path)">
    <path id="Path_102" data-name="Path 102" d="M492.469,40.36a4.572,4.572,0,1,0,4.573,4.572,4.577,4.577,0,0,0-4.573-4.572m0,7.238a2.851,2.851,0,0,0-2.03.853c-.113-.065-.221-.135-.327-.21a3.224,3.224,0,0,1,4.714,0c-.105.075-.214.145-.327.21a2.852,2.852,0,0,0-2.031-.853m0-5.332a2.854,2.854,0,0,0,2.031-.853c.112.065.221.135.327.21a3.225,3.225,0,0,1-4.714,0q.158-.113.327-.211a2.852,2.852,0,0,0,2.03.853m0,3.588a.923.923,0,1,1,.923-.923.924.924,0,0,1-.923.923m-1.057-1.875c-.009-.044-.018-.089-.029-.132.044.011.088.019.133.029-.037.033-.071.067-.1.1m0,1.905a1.287,1.287,0,0,0,.1.1l-.134.029c.011-.044.019-.088.029-.133m2.112,0c.009.045.018.089.029.134-.045-.011-.089-.019-.134-.029a1.467,1.467,0,0,0,.1-.105m0-1.9a1.454,1.454,0,0,0-.1-.1l.133-.029c-.011.044-.02.088-.029.133m.217-.713a4.093,4.093,0,0,1-2.546,0,4.485,4.485,0,0,0-.18-.412,3.694,3.694,0,0,0,2.906,0c-.068.133-.125.272-.18.412m-2.938.392a4.009,4.009,0,0,1,0,2.546,4.451,4.451,0,0,0-.412.18,3.693,3.693,0,0,0,0-2.905c.133.068.272.125.412.18M491.2,46.6a4.1,4.1,0,0,1,2.546,0c.055.14.112.279.18.412a3.689,3.689,0,0,0-2.906,0c.069-.133.125-.272.18-.412m2.938-.392a4.008,4.008,0,0,1,0-2.546,4.485,4.485,0,0,0,.412-.18,3.7,3.7,0,0,0,0,2.906c-.133-.068-.272-.125-.412-.18m.314-3.252a4.069,4.069,0,0,1,.786-1q.109.1.21.21a4.07,4.07,0,0,1-1,.786m-4.743-1a4.07,4.07,0,0,1,.786,1,4.061,4.061,0,0,1-1-.786q.1-.109.21-.21m-.544.617a3.225,3.225,0,0,1,0,4.714c-.075-.105-.145-.214-.21-.327a2.844,2.844,0,0,0,0-4.061q.1-.168.21-.327m1.329,4.335a4.075,4.075,0,0,1-.786,1c-.073-.067-.142-.138-.21-.21a4.086,4.086,0,0,1,1-.786m4.743,1a4.071,4.071,0,0,1-.786-1,4.082,4.082,0,0,1,1,.786c-.068.072-.138.143-.21.21m.544-.617a3.226,3.226,0,0,1,0-4.714q.112.158.21.327a2.844,2.844,0,0,0,0,4.061c-.066.113-.135.221-.21.327m-.137-2.358a2.341,2.341,0,0,1,.59-1.54,4.038,4.038,0,0,1,0,3.08,2.341,2.341,0,0,1-.59-1.54m-1.632-3.762a2.3,2.3,0,0,1-3.079,0,4.042,4.042,0,0,1,3.079,0m-5.3,2.222a2.3,2.3,0,0,1,0,3.08,4.038,4.038,0,0,1,0-3.08m2.222,5.3a2.3,2.3,0,0,1,3.08,0,4.045,4.045,0,0,1-3.08,0" transform="translate(-245.777 -20.331)" fill="#fff"/>
    <path id="Path_103" data-name="Path 103" d="M495.865,47.5s0,.013-.009.018,0,0-.009.009a.42.42,0,0,0-.041.045s0,.009-.013.018a5.838,5.838,0,0,1-.672.666v0s-.009,0-.013.009a.565.565,0,0,1-.05.041s0,.009-.009.013-.009,0-.009,0a5.623,5.623,0,0,1-2.512,1.166h4.5v-4.5a5.664,5.664,0,0,1-1.162,2.508m-3.313-9.059a5.66,5.66,0,0,1,2.481,1.157s.013,0,.018.009,0,.009.009.013a.671.671,0,0,0,.059.045s0,0,0,0v0a5.838,5.838,0,0,1,.672.666c.008.009.008.013.013.018a.472.472,0,0,0,.041.045s0,0,.009.009,0,.013.009.018a5.664,5.664,0,0,1,1.162,2.508v-4.5Zm-4.584,9.892-.022-.009s0-.009-.008-.013-.028-.023-.046-.036l-.013-.013a0,0,0,0,1,0,0,5.78,5.78,0,0,1-.666-.666h0a.062.062,0,0,0-.013-.018c-.014-.018-.027-.032-.036-.045s-.009,0-.013-.009,0-.013-.009-.018a5.659,5.659,0,0,1-1.161-2.508v4.5h4.5a5.63,5.63,0,0,1-2.5-1.162m-2-9.892v4.5a5.659,5.659,0,0,1,1.161-2.508s0-.013.009-.018.009,0,.013-.009a.286.286,0,0,1,.036-.041c0-.009.009-.013.013-.022h0a5.78,5.78,0,0,1,.666-.666,0,0,0,0,1,0,0,.044.044,0,0,1,.023-.018.179.179,0,0,1,.036-.032s0-.009.008-.013l.022-.009a5.619,5.619,0,0,1,2.476-1.157Z" transform="translate(-244.806 -19.362)" fill="#fff"/>
    <path id="Path_104" data-name="Path 104" d="M486.122,21.1h0a.154.154,0,0,1-.153-.154V15.434h5.509a.154.154,0,0,1,0,.307,5.222,5.222,0,0,0-5.2,5.2.154.154,0,0,1-.153.153m.153-5.356v3.4a5.552,5.552,0,0,1,3.4-3.4Z" transform="translate(-244.805 -7.775)" fill="#fff"/>
    <path id="Path_105" data-name="Path 105" d="M502.364,21.1a.154.154,0,0,1-.154-.153,5.221,5.221,0,0,0-5.189-5.2.154.154,0,0,1,0-.307h5.495v5.51a.153.153,0,0,1-.153.154Zm-3.55-5.357a5.557,5.557,0,0,1,3.4,3.4v-3.4Z" transform="translate(-250.297 -7.775)" fill="#fff"/>
    <path id="Path_106" data-name="Path 106" d="M491.482,32.042h-5.514V26.605a.154.154,0,0,1,.309,0,5.221,5.221,0,0,0,5.206,5.132.154.154,0,0,1,0,.307m-5.207-.307h3.4a5.552,5.552,0,0,1-3.4-3.4Z" transform="translate(-244.805 -13.325)" fill="#fff"/>
    <path id="Path_107" data-name="Path 107" d="M497.013,32.042a.154.154,0,0,1,0-.307A5.22,5.22,0,0,0,502.2,26.6a.154.154,0,0,1,.309,0v5.437Zm1.8-.307h3.4v-3.4a5.554,5.554,0,0,1-3.4,3.4" transform="translate(-250.292 -13.325)" fill="#fff"/>
    <path id="Path_108" data-name="Path 108" d="M487.7,17.316a.153.153,0,0,1-.109-.045L486.013,15.7a.154.154,0,0,1,.217-.217l1.576,1.576a.154.154,0,0,1-.109.262" transform="translate(-244.805 -7.774)" fill="#fff"/>
    <path id="Path_109" data-name="Path 109" d="M506.186,35.8a.153.153,0,0,1-.109-.045L504.5,34.184a.154.154,0,0,1,.217-.217l1.576,1.576a.154.154,0,0,1-.109.262" transform="translate(-254.119 -17.088)" fill="#fff"/>
    <path id="Path_110" data-name="Path 110" d="M504.613,17.315a.154.154,0,0,1-.109-.262l1.575-1.575a.153.153,0,0,1,.217.217l-1.574,1.575a.153.153,0,0,1-.108.045" transform="translate(-254.12 -7.774)" fill="#fff"/>
    <path id="Path_111" data-name="Path 111" d="M486.122,35.806a.154.154,0,0,1-.109-.262l1.575-1.575a.154.154,0,0,1,.217.217l-1.575,1.574a.153.153,0,0,1-.109.045" transform="translate(-244.805 -17.089)" fill="#fff"/>
    <path id="Path_112" data-name="Path 112" d="M497.051,22.707a5.158,5.158,0,0,0-3.909,3.81,5.163,5.163,0,0,0-3.91-3.81,5.165,5.165,0,0,0,3.91-3.812,5.16,5.16,0,0,0,3.909,3.812" transform="translate(-246.45 -9.518)" fill="#fff"/>
    <path id="Path_113" data-name="Path 113" d="M131.447,30.18a4.338,4.338,0,0,0-3.428-1.132h-7.568v8.925H116.8V15.433h10.413a10.573,10.573,0,0,1,6.354,1.73,5.671,5.671,0,0,1,2.377,4.867,5.079,5.079,0,0,1-.971,3.137,6.179,6.179,0,0,1-2.522,1.973,6.532,6.532,0,0,1,2.587,2.571,7.778,7.778,0,0,1,.906,3.832v4.463h-3.525V33.542a5.048,5.048,0,0,0-.97-3.363m-4.236-4.269a6.288,6.288,0,0,0,3.816-.938,3.464,3.464,0,0,0,1.228-2.942,3,3,0,0,0-1.228-2.62,6.657,6.657,0,0,0-3.816-.873h-6.759v7.373Z" transform="translate(-58.837 -7.774)" fill="#fff"/>
    <path id="Path_114" data-name="Path 114" d="M165,43.973a7.716,7.716,0,0,1-3.25-2.894,8.792,8.792,0,0,1-.016-8.716,7.621,7.621,0,0,1,3.25-2.878,11.985,11.985,0,0,1,9.669,0,7.628,7.628,0,0,1,3.25,2.878,8.118,8.118,0,0,1,1.148,4.35v.841H164.242a4.055,4.055,0,0,0,1.52,3.137,6.248,6.248,0,0,0,4.075,1.2,7.506,7.506,0,0,0,3.395-.712,3.871,3.871,0,0,0,1.973-2.263h3.622a6.743,6.743,0,0,1-3.153,4.5A11.736,11.736,0,0,1,165,43.973m10.235-9.006a4.053,4.053,0,0,0-1.859-2.506,7.494,7.494,0,0,0-7.082,0,4.047,4.047,0,0,0-1.859,2.506Z" transform="translate(-80.896 -14.34)" fill="#fff"/>
    <path id="Path_115" data-name="Path 115" d="M203.01,28.4h3.557v2.49a8.212,8.212,0,0,1,6.4-2.49,10.028,10.028,0,0,1,4.576,1.019,7.808,7.808,0,0,1,3.185,2.894A8.108,8.108,0,0,1,221.9,36.68a8.367,8.367,0,0,1-1.148,4.4,7.708,7.708,0,0,1-3.185,2.943,10,10,0,0,1-4.592,1.035,9.465,9.465,0,0,1-3.735-.7,7.551,7.551,0,0,1-2.668-1.827v7.858H203.01Zm5.061,12.24a6.147,6.147,0,0,0,4.22,1.439,6.053,6.053,0,0,0,4.2-1.423,5.033,5.033,0,0,0,1.585-3.945,5.034,5.034,0,0,0-1.585-3.946,6.056,6.056,0,0,0-4.2-1.423,6.147,6.147,0,0,0-4.22,1.439,4.967,4.967,0,0,0-1.633,3.929,4.966,4.966,0,0,0,1.633,3.929" transform="translate(-102.266 -14.307)" fill="#fff"/>
    <path id="Path_116" data-name="Path 116" d="M278.859,15.433h9.96a11.313,11.313,0,0,1,4.414.808,6.86,6.86,0,0,1,3.024,2.361,6.267,6.267,0,0,1,1.1,3.719,6.274,6.274,0,0,1-1.083,3.686,6.846,6.846,0,0,1-3.024,2.377,11.234,11.234,0,0,1-4.431.825h-6.306v8.8h-3.654Zm9.734,10.639q5.141,0,5.142-3.751a3.31,3.31,0,0,0-1.261-2.862,6.6,6.6,0,0,0-3.881-.922h-6.08v7.535Z" transform="translate(-140.475 -7.774)" fill="#fff"/>
    <path id="Path_117" data-name="Path 117" d="M324.953,44.263a6.127,6.127,0,0,1-2.652-2.3,6.524,6.524,0,0,1-.954-3.573V28.4h3.589v9.928a3.307,3.307,0,0,0,1.051,2.765,5.238,5.238,0,0,0,3.249.824,7.2,7.2,0,0,0,4.075-.937,3.763,3.763,0,0,0,1.359-3.331V28.4H338.1V44.57h-3.557V43.05a9.412,9.412,0,0,1-9.588,1.213" transform="translate(-161.878 -14.307)" fill="#fff"/>
    <rect id="Rectangle_63" data-name="Rectangle 63" width="3.589" height="22.637" transform="translate(179.453 7.626)" fill="#fff"/>
    <path id="Path_118" data-name="Path 118" d="M377.35,43.584a5.443,5.443,0,0,1-2.636-4.253h3.654a2.61,2.61,0,0,0,1.423,2.038,7.759,7.759,0,0,0,3.46.614q3.784,0,3.881-1.94a1.151,1.151,0,0,0-.776-1.116,13.116,13.116,0,0,0-2.814-.663l-1.585-.226a10.384,10.384,0,0,1-4.5-1.633,3.817,3.817,0,0,1-1.714-3.282,3.914,3.914,0,0,1,1.973-3.46,11.153,11.153,0,0,1,10.364.032,4.677,4.677,0,0,1,2.248,3.493h-3.524a1.768,1.768,0,0,0-1.084-1.488,7.85,7.85,0,0,0-2.862-.388q-3.493,0-3.492,1.843a1.14,1.14,0,0,0,.7,1.067,8.708,8.708,0,0,0,2.442.614l1.585.227q6.629.939,6.629,4.915a4.217,4.217,0,0,1-2.053,3.751,9.924,9.924,0,0,1-5.449,1.326,10.848,10.848,0,0,1-5.869-1.471" transform="translate(-188.761 -14.307)" fill="#fff"/>
    <path id="Path_119" data-name="Path 119" d="M415.295,43.973a7.715,7.715,0,0,1-3.25-2.894,8.792,8.792,0,0,1-.016-8.716,7.621,7.621,0,0,1,3.251-2.878,11.985,11.985,0,0,1,9.669,0,7.628,7.628,0,0,1,3.25,2.878,8.118,8.118,0,0,1,1.148,4.35v.841H414.534a4.054,4.054,0,0,0,1.52,3.137,6.248,6.248,0,0,0,4.075,1.2,7.505,7.505,0,0,0,3.395-.712,3.871,3.871,0,0,0,1.973-2.263h3.622a6.743,6.743,0,0,1-3.153,4.5,11.736,11.736,0,0,1-10.671.566m10.235-9.006a4.052,4.052,0,0,0-1.859-2.506,7.495,7.495,0,0,0-7.082,0,4.047,4.047,0,0,0-1.859,2.506Z" transform="translate(-206.98 -14.34)" fill="#fff"/>
    <path id="Path_120" data-name="Path 120" d="M453.948,34.506a2.234,2.234,0,0,1,1.65-.647,2.288,2.288,0,0,1,1.665.647,2.383,2.383,0,0,1,0,3.3,2.29,2.29,0,0,1-1.665.647,2.333,2.333,0,0,1-1.65-3.945m.195-20.049h2.942V32.5h-2.942Z" transform="translate(-228.349 -7.283)" fill="#fff"/>
    <path id="Path_121" data-name="Path 121" d="M55.776,21.986a2.938,2.938,0,0,1-3.225-3.225,2.6,2.6,0,0,0-2.886-2.886,2.939,2.939,0,0,1-3.225-3.226,2.683,2.683,0,0,0-.744-2.143,2.368,2.368,0,0,0-.838-.56v3.128a4.281,4.281,0,0,1,.17,1.325,2.6,2.6,0,0,0,2.886,2.887,2.938,2.938,0,0,1,3.225,3.225A2.6,2.6,0,0,0,54.025,23.4l.167,0a20.584,20.584,0,0,0,2.318-1.373,6.511,6.511,0,0,0-.733-.043" transform="translate(-22.597 -5.011)" fill="#fff"/>
    <path id="Path_122" data-name="Path 122" d="M47.7,4.049a3,3,0,0,1,.846,2.381A2.6,2.6,0,0,0,51.43,9.316a2.937,2.937,0,0,1,3.225,3.225,2.6,2.6,0,0,0,2.886,2.885,4.106,4.106,0,0,1,1.4.2q.76-.711,1.446-1.5a4.43,4.43,0,0,0-1.09-.113,2.937,2.937,0,0,1-3.225-3.224A2.6,2.6,0,0,0,53.182,7.9a2.939,2.939,0,0,1-3.225-3.226,2.684,2.684,0,0,0-.744-2.143,2.684,2.684,0,0,0-2.142-.744A3.063,3.063,0,0,1,44.858,1.1V3.187c.152.01.305.013.461.016a3,3,0,0,1,2.38.845" transform="translate(-22.597 -0.555)" fill="#fff"/>
    <path id="Path_123" data-name="Path 123" d="M78.85.815a3,3,0,0,1,.845,2.38,2.681,2.681,0,0,0,.743,2.142,2.594,2.594,0,0,0,.483.385,20.484,20.484,0,0,0,.559-2.5,3.429,3.429,0,0,1-.373-1.775A3.408,3.408,0,0,0,80.865,0H77.114A2.656,2.656,0,0,1,78.85.815" transform="translate(-38.846 0)" fill="#fff"/>
    <path id="Path_124" data-name="Path 124" d="M45.941,8.275a3,3,0,0,1,.846,2.381,2.6,2.6,0,0,0,2.886,2.886A2.938,2.938,0,0,1,52.9,16.767a2.6,2.6,0,0,0,2.886,2.885,4.977,4.977,0,0,1,1.119.11,20.724,20.724,0,0,0,1.745-1.4,4.334,4.334,0,0,0-1.112-.119,2.938,2.938,0,0,1-3.225-3.225,2.6,2.6,0,0,0-2.886-2.886A2.939,2.939,0,0,1,48.2,8.9a2.6,2.6,0,0,0-2.886-2.887c-.15,0-.3-.006-.454-.015V7.591a2.679,2.679,0,0,1,1.083.684" transform="translate(-22.597 -3.024)" fill="#fff"/>
    <path id="Path_125" data-name="Path 125" d="M67.337.984a2.682,2.682,0,0,0,2.142.743A2.938,2.938,0,0,1,72.7,4.953a2.681,2.681,0,0,0,.743,2.142,2.323,2.323,0,0,0,1.518.714c.233-.569.444-1.149.626-1.742a2.928,2.928,0,0,1-.63-.485,3,3,0,0,1-.845-2.38,2.68,2.68,0,0,0-.743-2.142A2.682,2.682,0,0,0,71.231.316,3.583,3.583,0,0,1,69.564,0H66.727a2.325,2.325,0,0,0,.61.984" transform="translate(-33.614 0)" fill="#fff"/>
    <path id="Path_126" data-name="Path 126" d="M59.279,4.5a2.682,2.682,0,0,0,2.142.743,2.938,2.938,0,0,1,3.225,3.225,2.6,2.6,0,0,0,2.886,2.885,5.647,5.647,0,0,1,.968.077q.482-.722.9-1.486l-.12,0a2.937,2.937,0,0,1-3.225-3.224,2.6,2.6,0,0,0-2.886-2.886,3,3,0,0,1-2.38-.845A3,3,0,0,1,59.947.606c0-.2-.008-.406-.028-.606H57.711a3.011,3.011,0,0,1,.824,2.358A2.682,2.682,0,0,0,59.279,4.5" transform="translate(-29.072 0)" fill="#fff"/>
    <path id="Path_127" data-name="Path 127" d="M49.88,34.082a3,3,0,0,1-.845-2.38,2.6,2.6,0,0,0-2.886-2.886,4.386,4.386,0,0,1-1.291-.159v1.587a2.712,2.712,0,0,1,1.92.829,3,3,0,0,1,.845,2.38,3.527,3.527,0,0,0,.218,1.39A20.6,20.6,0,0,0,50.2,34.36a3.226,3.226,0,0,1-.316-.278" transform="translate(-22.597 -14.436)" fill="#fff"/>
    <path id="Path_128" data-name="Path 128" d="M85.644,1.436a4.37,4.37,0,0,0,.117,1.105A20.754,20.754,0,0,0,85.923,0h-.49a4.006,4.006,0,0,1,.211,1.436" transform="translate(-43.037 0)" fill="#fff"/>
    <path id="Path_129" data-name="Path 129" d="M70.411,4.96a2.682,2.682,0,0,0-.743-2.142,2.682,2.682,0,0,0-2.142-.743,3,3,0,0,1-2.38-.845A2.637,2.637,0,0,1,64.419,0H62.862c.017.2.022.4.026.6a2.682,2.682,0,0,0,.744,2.143,2.682,2.682,0,0,0,2.142.744A2.938,2.938,0,0,1,69,6.711,2.6,2.6,0,0,0,71.885,9.6l.295.007c.251-.477.486-.964.7-1.463a2.631,2.631,0,0,1-1.624-.8,3,3,0,0,1-.845-2.38" transform="translate(-31.667 0)" fill="#fff"/>
    <path id="Path_130" data-name="Path 130" d="M45.86,37c.548-.026,1.088-.079,1.624-.147a4.026,4.026,0,0,1-.208-1.428,2.68,2.68,0,0,0-.743-2.142,2.378,2.378,0,0,0-1.675-.727v2.089c.054.047.108.1.162.151A2.863,2.863,0,0,1,45.86,37" transform="translate(-22.597 -16.399)" fill="#fff"/>
    <path id="Path_131" data-name="Path 131" d="M44.858,37.739v1.9c.22,0,.438-.009.657-.016a2.562,2.562,0,0,0-.657-1.88" transform="translate(-22.597 -19.011)" fill="#fff"/>
    <path id="Path_132" data-name="Path 132" d="M48.536,25.781a3,3,0,0,1,.845,2.38,2.681,2.681,0,0,0,.743,2.142,2.581,2.581,0,0,0,.506.4,20.521,20.521,0,0,0,2.9-1.085,2.7,2.7,0,0,1-1.888-.827,3,3,0,0,1-.845-2.379,2.6,2.6,0,0,0-2.886-2.886,3,3,0,0,1-2.38-.845,2.69,2.69,0,0,1-.669-1.038v3.114a3.746,3.746,0,0,0,1.3.181,3,3,0,0,1,2.38.845" transform="translate(-22.597 -10.901)" fill="#fff"/>
    <path id="Path_133" data-name="Path 133" d="M44.934.146A2.682,2.682,0,0,0,47.077.89a3,3,0,0,1,2.38.845A3,3,0,0,1,50.3,4.115a2.682,2.682,0,0,0,.744,2.143A2.684,2.684,0,0,0,53.189,7a2.937,2.937,0,0,1,3.225,3.225A2.6,2.6,0,0,0,59.3,13.112a4.262,4.262,0,0,1,1.331.172q.624-.741,1.178-1.538a6.38,6.38,0,0,0-.758-.046,2.938,2.938,0,0,1-3.225-3.225A2.6,2.6,0,0,0,54.94,5.59a3,3,0,0,1-2.38-.845,3,3,0,0,1-.845-2.381A2.685,2.685,0,0,0,50.97.221,2.763,2.763,0,0,0,50.721,0H44.858V.065c.025.027.049.054.076.081" transform="translate(-22.597 0)" fill="#fff"/>
    <path id="Path_134" data-name="Path 134" d="M20.366,43.391H0V.264H.069a20.3,20.3,0,0,1,20.3,20.3Z" transform="translate(0 -0.133)" fill="#fff"/>
    <path id="Path_135" data-name="Path 135" d="M44.858,45.558H65.483V66.183A20.625,20.625,0,0,1,44.858,45.558" transform="translate(-22.597 -22.95)" fill="#fff"/>
  </g>
</svg>
