<svg xmlns="http://www.w3.org/2000/svg" width="70" height="70" viewBox="0 0 70 70">
  <g id="Group_82" data-name="Group 82" transform="translate(-698 -1300)">
    <g id="Group_80" data-name="Group 80">
      <g id="Group_81" data-name="Group 81">
        <rect id="Rectangle_7" data-name="Rectangle 7" width="70" height="70" rx="21" transform="translate(698 1300)" fill="#00bdad"/>
      </g>
    </g>
    <g id="_64-Interview" data-name="64-Interview" transform="translate(716 1318)">
      <circle id="Ellipse_2" data-name="Ellipse 2" cx="4" cy="4" r="4" transform="translate(5 14.1)" fill="#f8f8f8"/>
      <path id="Path_54" data-name="Path 54" d="M12,22H6a4,4,0,0,0-4,4v3a1,1,0,0,0,1,1H15a1,1,0,0,0,1-1V26A4,4,0,0,0,12,22Z" transform="translate(0 2)" fill="#f8f8f8"/>
      <path id="Path_55" data-name="Path 55" d="M27,2H15a3,3,0,0,0-3,3v6a3,3,0,0,0,3,3h3v2a1,1,0,0,0,1.6.8L23.33,14H27a3,3,0,0,0,3-3V5a3,3,0,0,0-3-3ZM17,9a1,1,0,1,1,1-1A1,1,0,0,1,17,9Zm4,0a1,1,0,1,1,1-1A1,1,0,0,1,21,9Zm4,0a1,1,0,1,1,1-1A1,1,0,0,1,25,9Z" transform="translate(2)" fill="#f8f8f8"/>
      <circle id="Ellipse_3" data-name="Ellipse 3" cx="3" cy="3" r="3" transform="translate(24 18.364)" fill="#f8f8f8"/>
      <path id="Path_56" data-name="Path 56" d="M27,24H23a3,3,0,0,0-3,3v2a1,1,0,0,0,1,1h8a1,1,0,0,0,1-1V27A3,3,0,0,0,27,24Z" transform="translate(2 2)" fill="#f8f8f8"/>
    </g>
  </g>
</svg>
