<svg xmlns="http://www.w3.org/2000/svg" width="70" height="70" viewBox="0 0 70 70">
  <g id="Group_83" data-name="Group 83" transform="translate(-256 -1300)">
    <rect id="Rectangle_6" data-name="Rectangle 6" width="70" height="70" rx="21" transform="translate(256 1300)" fill="#00bdad"/>
    <path id="phone" d="M23.408,25.492a3.217,3.217,0,0,1-1.076,4.42l-2.663,1.621A3.193,3.193,0,0,1,18.006,32a3.3,3.3,0,0,1-1.528-.378A26.279,26.279,0,0,1,6.289,22.107,25.962,25.962,0,0,1,2.52,8.625,3.184,3.184,0,0,1,4.064,5.891L6.728,4.27a3.216,3.216,0,0,1,4.419,1.075l1.672,2.746a3.22,3.22,0,0,1-1.075,4.42l-1.38.839a1.064,1.064,0,0,0-.477,1.2,18.771,18.771,0,0,0,4.76,7.823,1.055,1.055,0,0,0,1.292.133l1.379-.839a3.219,3.219,0,0,1,4.42,1.074l1.672,2.748ZM17.066,12.606A4.293,4.293,0,0,1,20.65,17.5a1.072,1.072,0,1,0,2.119.327,6.44,6.44,0,0,0-5.375-7.338,1.072,1.072,0,1,0-.328,2.118Zm.981-6.357a1.072,1.072,0,0,0-.327,2.119,8.577,8.577,0,0,1,7.167,9.784,1.072,1.072,0,1,0,2.119.327A10.719,10.719,0,0,0,18.047,6.25ZM18.7,2.012a1.072,1.072,0,1,0-.327,2.119A12.878,12.878,0,0,1,29.125,18.807a1.072,1.072,0,1,0,2.119.327A15.024,15.024,0,0,0,18.7,2.013Z" transform="translate(273.48 1318)" fill="#f8f8f8"/>
  </g>
</svg>
