<svg xmlns="http://www.w3.org/2000/svg" width="70" height="70" viewBox="0 0 70 70">
  <g id="Group_82" data-name="Group 82" transform="translate(-1142 -1300)">
    <rect id="Rectangle_8" data-name="Rectangle 8" width="70" height="70" rx="21" transform="translate(1142 1300)" fill="#00bdad"/>
    <path id="jigsaw" d="M33.862,16.041l-1.92.551V10.9a1.645,1.645,0,0,0-1.722-1.584H23.072L23.623,7.4A2.222,2.222,0,0,0,21.5,4.58H18.672A2.222,2.222,0,0,0,16.545,7.4L17.1,9.316H9.932A1.645,1.645,0,0,0,8.21,10.9v5.692l1.92-.551a2.213,2.213,0,0,1,2.816,2.127v2.824a2.213,2.213,0,0,1-2.816,2.127l-1.92-.551V28.26a1.645,1.645,0,0,0,1.722,1.584H17.1l-.551,1.912a2.222,2.222,0,0,0,2.127,2.824H21.5a2.222,2.222,0,0,0,2.127-2.824l-.551-1.912h7.164a1.645,1.645,0,0,0,1.722-1.584V22.568l1.92.551a2.213,2.213,0,0,0,2.816-2.127V18.168a2.213,2.213,0,0,0-2.833-2.127Z" transform="translate(1154.79 1315.42)" fill="#f8f8f8"/>
  </g>
</svg>
