<svg xmlns="http://www.w3.org/2000/svg" width="39" height="39" viewBox="0 0 39 39">
  <path id="profit" d="M40.555,25.948a40.121,40.121,0,0,1,5.1,6.681c4.1,7.195-1.732,14.5-9.538,14.371-7.807.132-13.636-7.176-9.538-14.371a40.125,40.125,0,0,1,5.1-6.681,2.847,2.847,0,0,0,.861.133h7.16a2.847,2.847,0,0,0,.861-.133ZM11.576,8A3.585,3.585,0,0,0,8,11.576V37.711a3.585,3.585,0,0,0,3.575,3.575H24.741a10.4,10.4,0,0,1,.742-9.279c.335-.588.7-1.171,1.094-1.746a.822.822,0,0,1-.377-.69V28.5a.823.823,0,0,1,.822-.822h1.491c.666-.819,1.359-1.616,2.053-2.386a2.882,2.882,0,0,1-.521-.666H27.021a.823.823,0,0,1-.822-.822V22.738a.823.823,0,0,1,.822-.822h2.964a2.888,2.888,0,0,1,1.137-1.187l-.854-.854A2.9,2.9,0,0,1,29.424,18H12.768a.823.823,0,0,1-.822-.822V13.954a.823.823,0,0,1,.822-.822H30.848a.823.823,0,0,1,.822.822v1.034a2.922,2.922,0,0,1,1.761.142,2.92,2.92,0,0,1,2.184-1.746V11.576A3.585,3.585,0,0,0,32.04,8ZM32.534,24.823a1.6,1.6,0,1,1,0-3.21h7.16a1.6,1.6,0,1,1,0,3.21ZM13.523,21.916h3.072a.823.823,0,0,1,.822.822v1.068a.823.823,0,0,1-.822.822H13.523a.823.823,0,0,1-.822-.822V22.738A.823.823,0,0,1,13.523,21.916Zm6.749,11.526a.823.823,0,0,0-.822.822v1.068a.823.823,0,0,0,.822.822h3.072a.823.823,0,0,0,.822-.822V34.264a.823.823,0,0,0-.822-.822Zm-6.749,0h3.072a.823.823,0,0,1,.822.822v1.068a.823.823,0,0,1-.822.822H13.523a.823.823,0,0,1-.822-.822V34.264A.823.823,0,0,1,13.523,33.442Zm6.749-5.763a.823.823,0,0,0-.822.822v1.068a.823.823,0,0,0,.822.822h3.072a.823.823,0,0,0,.822-.822V28.5a.823.823,0,0,0-.822-.822Zm-6.749,0h3.072a.823.823,0,0,1,.822.822v1.068a.823.823,0,0,1-.822.822H13.523a.823.823,0,0,1-.822-.822V28.5A.823.823,0,0,1,13.523,27.679Zm6.749-5.763h3.072a.823.823,0,0,1,.822.822v1.068a.823.823,0,0,1-.822.822H20.272a.823.823,0,0,1-.822-.822V22.738A.823.823,0,0,1,20.272,21.916Zm15.76,17.536a2.517,2.517,0,0,1-1.324-.392,1.648,1.648,0,0,1-.7-.986.728.728,0,0,0-1.413.348A3.087,3.087,0,0,0,33.9,40.274a3.809,3.809,0,0,0,1.45.567v.566a.729.729,0,1,0,1.459,0v-.552a3.984,3.984,0,0,0,1.788-.713,2.369,2.369,0,0,0,.994-2.015c0-.1-.008-.191-.018-.268a2.649,2.649,0,0,0-1.344-2.031,5.745,5.745,0,0,0-2.025-.666,3.685,3.685,0,0,1-1.375-.46,1.059,1.059,0,0,1-.519-.867,1.218,1.218,0,0,1,.468-1.03,1.982,1.982,0,0,1,.858-.388,2.34,2.34,0,0,1,.4-.045h.043l.052,0a2.324,2.324,0,0,1,.536.07,1.872,1.872,0,0,1,1.3,1.114.729.729,0,0,0,1.345-.564,3.3,3.3,0,0,0-2.287-1.963q-.105-.027-.212-.047v-.565a.729.729,0,1,0-1.459,0v.576a3.445,3.445,0,0,0-1.49.685,2.629,2.629,0,0,0-1,2.226,2.445,2.445,0,0,0,1.18,2.018,5.071,5.071,0,0,0,1.934.677,4.365,4.365,0,0,1,1.507.478,1.259,1.259,0,0,1,.649.954c.007.06.011.1.012.131a.976.976,0,0,1-.419.824,2.58,2.58,0,0,1-1.223.442c-.123.015-.23.023-.321.025h-.035l-.062,0-.052,0Zm-3.5-19.1-1.37-1.37a1.649,1.649,0,0,1,2.058-2.554A.848.848,0,0,0,34.5,15.9a1.649,1.649,0,0,1,3.223,0,.848.848,0,0,0,1.287.533,1.656,1.656,0,0,1,2.058.221h0a1.654,1.654,0,0,1,0,2.332l-1.37,1.37H32.534Z" transform="translate(-8.001 -8.001)" fill="#29296b" fill-rule="evenodd"/>
</svg>
