<svg xmlns="http://www.w3.org/2000/svg" width="39.071" height="39" viewBox="0 0 39.071 39">
  <path id="reach" d="M36.3,36.473a1.93,1.93,0,1,1,2.731,0,1.931,1.931,0,0,1-2.731,0Zm-.25,16.457a2.745,2.745,0,1,0,1.94.8A2.727,2.727,0,0,0,36.051,52.93Zm.011-8.362A4.235,4.235,0,1,0,31.827,48.8,4.24,4.24,0,0,0,36.062,44.568Zm5.282-5.081.706-.71-1.986-1.983-.707.708,1.988,1.984Zm-4.306,5.581h2.42v-1h-2.42ZM62.2,32.6a2.172,2.172,0,1,0-3.071,0,2.178,2.178,0,0,0,3.071,0ZM46.657,36.867h1V34.457l-1-.005ZM58.8,33.633l-.708-.708-5.841,5.841.708.708L58.8,33.633Zm-11.61-.155a4.209,4.209,0,1,0-4.209-4.209A4.214,4.214,0,0,0,47.19,33.478Zm-.033,22.257A4.163,4.163,0,1,0,51.321,59.9,4.169,4.169,0,0,0,47.157,55.735ZM38.321,52.7l.707.708,3.035-3.035-.708-.708L38.321,52.7Zm17.13-1.162a1.326,1.326,0,1,0,.937.387,1.321,1.321,0,0,0-.937-.387Zm7-11.208a4.209,4.209,0,1,0,4.209,4.209A4.214,4.214,0,0,0,62.454,40.326Zm-9.5,9.338-.708.707,1.239,1.238L54.2,50.9Zm1.9-5.6v1h2.413l-.005-1H54.858ZM43.065,49.9a6.739,6.739,0,0,0,8.184,0,4.313,4.313,0,0,0-8.184,0ZM51.91,39.815a6.721,6.721,0,0,0-9.642,9.362A5.3,5.3,0,0,1,45.239,46.3a3.189,3.189,0,1,1,3.837,0,5.3,5.3,0,0,1,2.971,2.874,6.728,6.728,0,0,0-.136-9.362Zm-2.565,3.941a2.188,2.188,0,1,0-2.188,2.19A2.19,2.19,0,0,0,49.345,43.757Zm-2.688,11h1V52.268h-1Z" transform="translate(-27.592 -25.06)" fill="#29296b"/>
</svg>
