<svg id="Layer_1" enable-background="new 0 0 512 512" height="512" viewBox="0 0 512 512" width="512" xmlns="http://www.w3.org/2000/svg" xmlns:x="http://ns.adobe.com/Extensibility/1.0/" xmlns:i="http://ns.adobe.com/AdobeIllustrator/10.0/" xmlns:graph="http://ns.adobe.com/Graphs/1.0/" xmlns:a="http://ns.adobe.com/AdobeSVGViewerExtensions/3.0/"><path clip-rule="evenodd" d="m121.502 309.059c-11.435-7.355-25.014-11.633-39.545-11.633-38.199 0-69.832 29.551-73.166 66.92-.315 3.533 2.432 6.535 5.979 6.535h118.123c-7.438-16.715-11.579-35.221-11.579-54.693 0-2.393.065-4.77.188-7.129zm142.5 52.39v8.771c0 4.418-3.584 8-8.001 8-4.419 0-8-3.582-8-8v-8.451c-7.01-1.127-13.432-5.078-17.594-10.834-2.589-3.572-1.792-8.566 1.78-11.156 3.573-2.588 8.568-1.791 11.156 1.781 2.102 2.906 5.235 4.543 8.826 4.543h5.939c5.959 0 10.865-4.906 10.865-10.865s-4.906-10.865-10.865-10.865h-4.218c-14.792 0-26.864-12.074-26.864-26.865 0-12.547 8.778-23.461 20.974-26.211v-8.771c0-4.418 3.581-8 8-8 4.417 0 8.001 3.582 8.001 8v8.451c7.008 1.127 13.43 5.078 17.594 10.834 2.586 3.572 1.789 8.566-1.783 11.156-3.572 2.588-8.568 1.791-11.156-1.781-2.1-2.906-5.236-4.543-8.826-4.543h-5.938c-5.959 0-10.864 4.906-10.864 10.865s4.905 10.865 10.864 10.865h4.218c14.791 0 26.865 12.074 26.865 26.865 0 12.547-8.778 23.461-20.973 26.211zm-8.001-163.949c-65.549 0-118.687 53.139-118.687 118.688s53.138 118.686 118.687 118.686c65.548 0 118.687-53.137 118.687-118.686s-53.139-118.688-118.687-118.688zm0 211.373c-51.198 0-92.687-41.488-92.687-92.686 0-51.199 41.488-92.688 92.687-92.688 51.196 0 92.687 41.488 92.687 92.688 0 51.198-41.491 92.686-92.687 92.686zm162.497-215.646c-21.332 4.5-38.162 21.207-42.848 42.469h-11.656c-9.168-12.277-20.379-22.938-33.129-31.479 10.348-15.844 28.234-26.367 48.461-26.367 15.074 0 28.848 5.843 39.172 15.377zm-237.36 10.99c-12.751 8.541-23.964 19.201-33.13 31.479h-11.658c-4.685-21.262-21.516-37.969-42.845-42.469 10.323-9.533 24.096-15.377 39.169-15.377 20.228 0 38.115 10.523 48.464 26.367zm131.042-10.467c-6.213-25.234-29.1-44.096-56.179-44.096-27.082 0-49.968 18.861-56.18 44.098 17.101-7.863 36.127-12.252 56.18-12.252 20.052 0 39.079 4.389 56.179 12.25zm-56.179-116.623c17.267 0 31.263 13.998 31.263 31.264 0 17.268-13.996 31.264-31.263 31.264s-31.265-13.996-31.265-31.264c0-17.266 13.998-31.264 31.265-31.264zm-123.327 28.193c17.266 0 31.264 13.998 31.264 31.266 0 17.266-13.998 31.264-31.264 31.264-17.267 0-31.264-13.998-31.264-31.264 0-17.268 13.997-31.266 31.264-31.266zm246.652 0c17.268 0 31.266 13.998 31.266 31.266 0 17.266-13.998 31.264-31.266 31.264-17.266 0-31.262-13.998-31.262-31.264 0-17.268 13.997-31.266 31.262-31.266zm-297.37 102.705c-21.926 0-39.7 17.773-39.7 39.699s17.774 39.701 39.7 39.701 39.7-17.775 39.7-39.701-17.774-39.699-39.7-39.699zm348.089 0c-21.926 0-39.699 17.773-39.699 39.699s17.773 39.701 39.699 39.701 39.699-17.775 39.699-39.701-17.773-39.699-39.699-39.699zm73.164 156.321c-3.332-37.369-34.965-66.92-73.164-66.92-14.531 0-28.111 4.277-39.547 11.633.125 2.361.189 4.736.189 7.129 0 19.473-4.143 37.979-11.58 54.693h118.125c3.547 0 6.293-3.002 5.977-6.535z" fill-rule="evenodd"/></svg>