<svg xmlns="http://www.w3.org/2000/svg" width="39.155" height="39" viewBox="0 0 39.155 39">
  <g id="user-engagement" transform="translate(-1.507 -1.63)">
    <g id="Group_50" data-name="Group 50" transform="translate(1.507 1.63)">
      <path id="Path_87" data-name="Path 87" d="M19.253,28.414l2.207-2.207a1.208,1.208,0,0,0,0-1.71l-3.133-3.133a1.208,1.208,0,0,0-1.71,0L14.41,23.571Z" transform="translate(-6.389 -8.962)" fill="#29296b"/>
      <path id="Path_88" data-name="Path 88" d="M36.857,39.894a1.208,1.208,0,0,0-1.71,0L32.94,42.1l4.843,4.843,2.207-2.207a1.208,1.208,0,0,0,0-1.71Z" transform="translate(-13.399 -15.972)" fill="#29296b"/>
      <path id="Path_89" data-name="Path 89" d="M33.911,17.314a.571.571,0,0,1-.137-.137,5.977,5.977,0,0,0-4.88-2.617c-.025,0-.044.006-.068.006s-.044-.006-.068-.006a5.977,5.977,0,0,0-4.88,2.617.713.713,0,0,1-.137.137,6.577,6.577,0,0,0,10.171,0Z" transform="translate(-9.918 -6.522)" fill="#29296b"/>
      <path id="Path_90" data-name="Path 90" d="M25.677,8.8a3.234,3.234,0,0,1-.5-.578,3.3,3.3,0,1,1,5.458-.006,3.43,3.43,0,0,1-.5.578,7.155,7.155,0,0,1,3.562,2.574,6.6,6.6,0,1,0-11.588,0A7.3,7.3,0,0,1,25.677,8.8Z" transform="translate(-8.995 -1.63)" fill="#29296b"/>
      <path id="Path_91" data-name="Path 91" d="M30.613,10.067H30.7a2.083,2.083,0,1,0-.087,0Z" transform="translate(-11.749 -3.253)" fill="#29296b"/>
      <path id="Path_92" data-name="Path 92" d="M54.286,33.841h.075a1.7,1.7,0,1,0-1.741-1.7,1.661,1.661,0,0,0,.3.957,1.7,1.7,0,0,0,1.368.74Z" transform="translate(-20.844 -12.529)" fill="#29296b"/>
      <path id="Path_93" data-name="Path 93" d="M51.906,26.62a5.661,5.661,0,0,0-5.023,8.3,6.291,6.291,0,0,1,2.947-2.17,2.721,2.721,0,0,1-.342-.41,2.927,2.927,0,1,1,5.347-1.647,2.919,2.919,0,0,1-.5,1.641,2.433,2.433,0,0,1-.348.41,6.23,6.23,0,0,1,2.947,2.17,5.656,5.656,0,0,0-5.023-8.293Z" transform="translate(-18.427 -11.084)" fill="#29296b"/>
      <path id="Path_94" data-name="Path 94" d="M52.8,37.88c-.019,0-.037.006-.056.006s-.037-.006-.056-.006a5.059,5.059,0,0,0-4.128,2.213.571.571,0,0,1-.137.137,5.671,5.671,0,0,0,8.648,0,.572.572,0,0,1-.137-.137A5.071,5.071,0,0,0,52.8,37.88Z" transform="translate(-19.255 -15.344)" fill="#29296b"/>
      <path id="Path_95" data-name="Path 95" d="M49.407,17.963a.5.5,0,0,1-.087.075,4.615,4.615,0,0,0,6.54-.006.5.5,0,0,1-.087-.075,4.012,4.012,0,0,0-6.366.006Z" transform="translate(-19.596 -7.214)" fill="#29296b"/>
      <path id="Path_96" data-name="Path 96" d="M49.879,11.735a2.138,2.138,0,0,1-.174-.224,2.492,2.492,0,1,1,4.551-1.405,2.54,2.54,0,0,1-.429,1.405,2.14,2.14,0,0,1-.174.224,5.235,5.235,0,0,1,2.12,1.523,4.612,4.612,0,1,0-8.623-2.269,4.541,4.541,0,0,0,.615,2.269A5.216,5.216,0,0,1,49.879,11.735Z" transform="translate(-18.775 -3.423)" fill="#29296b"/>
      <path id="Path_97" data-name="Path 97" d="M53.808,12.886a1.268,1.268,0,1,0-1.268-1.268,1.233,1.233,0,0,0,.224.715,1.261,1.261,0,0,0,1.044.553Z" transform="translate(-20.814 -4.929)" fill="#29296b"/>
      <path id="Path_98" data-name="Path 98" d="M32.553,33.541a.608.608,0,0,0,.8-.323l1.237-2.965a.615.615,0,0,0-.566-.852H32.441l.783-2.027a.61.61,0,1,0-1.138-.441l-1.113,2.854a.6.6,0,0,0,.068.566.609.609,0,0,0,.5.267h1.56l-.883,2.12a.615.615,0,0,0,.329.8Z" transform="translate(-12.639 -11.055)" fill="#29296b"/>
      <path id="Path_99" data-name="Path 99" d="M8.777,14.588a.613.613,0,0,0,.535.205.606.606,0,0,0,.466-.323l.721-1.386,1.467,1.766a.633.633,0,0,0,.472.224.6.6,0,0,0,.392-.143.613.613,0,0,0,.081-.864l-2.058-2.474a.612.612,0,0,0-.535-.218.6.6,0,0,0-.479.323L9.107,13.1l-1.43-1.629a.612.612,0,0,0-.92.808Z" transform="translate(-3.436 -5.275)" fill="#29296b"/>
      <path id="Path_100" data-name="Path 100" d="M50.807,50.642l-1.529.435.2-2.163a.612.612,0,1,0-1.219-.112l-.28,3.052a.617.617,0,0,0,.218.528.609.609,0,0,0,.56.118l1.5-.429-.274,2.282a.609.609,0,0,0,.535.678c.025,0,.05.006.075.006A.617.617,0,0,0,51.2,54.5l.379-3.2a.606.606,0,0,0-.771-.659Z" transform="translate(-19.087 -19.265)" fill="#29296b"/>
      <path id="Path_101" data-name="Path 101" d="M16.7,41.528a4.812,4.812,0,0,1-6.534.323,4.731,4.731,0,0,1-.236-6.9l3.587-3.587L8.671,26.52,4.9,30.294a11.561,11.561,0,0,0,0,16.357l.006.006a11.561,11.561,0,0,0,16.357,0l3.774-3.774L20.191,38.04Z" transform="translate(-1.507 -11.046)" fill="#29296b"/>
    </g>
  </g>
</svg>
